<?xml version="1.0" standalone="no"?>
<!DOCTYPE svg PUBLIC "-//W3C//DTD SVG 20010904//EN"
 "http://www.w3.org/TR/2001/REC-SVG-20010904/DTD/svg10.dtd">
<svg version="1.0" xmlns="http://www.w3.org/2000/svg"
 width="700.000000pt" height="700.000000pt" viewBox="0 0 700.000000 700.000000"
 preserveAspectRatio="xMidYMid meet">
<metadata>
Created by potrace 1.14, written by Peter Selinger 2001-2017
</metadata>
<g transform="translate(0.000000,700.000000) scale(0.100000,-0.100000)"
fill="#000000" stroke="none">
<path d="M3971 6554 c-212 -57 -363 -254 -363 -474 0 -38 7 -93 16 -123 19
-65 83 -165 134 -208 25 -21 30 -29 17 -26 -88 24 -118 29 -198 30 l-91 2 -58
-150 c-32 -82 -58 -155 -58 -161 0 -7 8 -15 18 -19 188 -73 1551 -594 1562
-597 10 -2 34 50 87 190 41 106 71 197 69 201 -3 4 -133 57 -290 117 -156 60
-284 110 -282 111 1 1 32 7 70 13 156 25 258 118 322 294 71 197 22 382 -145
546 -127 126 -300 214 -493 254 -95 20 -245 20 -317 0z m289 -439 c242 -87
360 -191 360 -316 0 -46 -29 -123 -61 -162 -53 -64 -99 -82 -209 -81 -80 0
-110 5 -190 33 -167 57 -257 126 -295 224 -46 121 23 279 141 323 56 21 162
12 254 -21z"/>
<path d="M1995 5336 c-369 -100 -675 -184 -681 -187 -14 -5 74 -339 89 -339 5
0 108 27 229 60 205 56 248 66 248 56 0 -10 352 -1301 355 -1305 8 -7 408 104
412 115 2 6 -75 303 -172 659 -97 356 -173 650 -170 653 3 4 110 34 236 68
127 34 232 64 235 67 4 3 -51 215 -82 320 -3 9 -11 17 -17 16 -7 0 -313 -83
-682 -183z"/>
<path d="M3903 4951 c-101 -15 -185 -30 -188 -32 -3 -3 -36 -208 -75 -455 -39
-247 -71 -456 -73 -464 -2 -8 -99 176 -216 410 -117 234 -214 426 -215 427 -5
6 -426 -62 -426 -69 0 -5 142 -271 316 -592 l317 -583 50 8 c28 5 53 7 55 4 9
-8 -9 -71 -28 -103 -14 -22 -40 -43 -78 -60 -53 -25 -66 -27 -194 -27 -118 0
-137 -2 -133 -15 2 -8 11 -67 20 -130 9 -63 19 -118 21 -121 2 -4 33 -15 69
-24 118 -32 339 -2 457 62 107 58 202 196 242 348 13 51 276 1422 276 1439 0
3 -3 5 -7 5 -5 -1 -90 -13 -190 -28z"/>
<path d="M4840 4623 c-215 -33 -389 -113 -503 -229 -173 -175 -204 -459 -82
-760 59 -147 182 -303 252 -320 20 -5 215 39 231 52 2 1 -14 26 -36 56 -86
115 -157 300 -169 444 -8 100 13 159 78 218 42 38 114 76 123 64 1 -1 50 -169
108 -373 l105 -370 89 1 c68 1 107 7 168 28 255 87 390 281 373 540 -21 331
-232 589 -522 641 -76 14 -161 17 -215 8z m341 -423 c79 -41 125 -124 117
-212 -6 -59 -28 -92 -92 -135 -49 -33 -151 -71 -162 -60 -8 8 -124 411 -119
415 2 2 28 8 57 12 70 11 154 2 199 -20z"/>
<path d="M931 2873 c-94 -472 -172 -861 -171 -864 0 -3 106 -53 236 -109 204
-89 238 -102 248 -88 139 188 771 1026 773 1025 1 -2 -54 -286 -122 -632 -69
-347 -124 -634 -122 -639 4 -13 451 -206 458 -198 4 4 242 321 529 705 302
403 519 701 514 706 -5 5 -88 43 -184 85 -169 75 -175 76 -190 58 -8 -11 -170
-240 -360 -509 -190 -270 -346 -487 -348 -482 -2 5 47 279 108 609 62 330 110
606 107 613 -3 9 -294 144 -398 185 -4 2 -178 -222 -385 -498 -208 -276 -380
-497 -381 -493 -3 7 248 1144 263 1194 3 12 -40 35 -193 102 -109 48 -201 87
-204 87 -3 0 -83 -386 -178 -857z"/>
<path d="M3981 3110 c-123 -97 -231 -307 -261 -506 -32 -212 51 -388 225 -473
84 -42 186 -64 255 -57 130 15 218 92 343 303 88 150 125 188 171 179 107 -22
109 -151 6 -357 -43 -85 -142 -215 -190 -249 -17 -12 -28 -26 -23 -30 10 -9
225 -90 238 -90 22 0 124 91 169 151 60 80 125 208 162 319 25 75 28 100 28
215 1 126 0 132 -31 197 -54 115 -155 194 -302 238 -196 60 -326 -19 -489
-297 -46 -78 -95 -154 -109 -168 -33 -32 -82 -33 -118 -2 -82 70 0 312 176
518 l48 56 -112 43 c-61 24 -117 45 -123 47 -6 2 -34 -15 -63 -37z"/>
<path d="M5290 2262 c-25 -20 -58 -47 -74 -59 l-28 -23 64 -62 c75 -72 108
-130 108 -187 0 -54 -12 -83 -52 -123 -25 -24 -338 -275 -474 -379 -7 -6 -50
42 -123 136 -62 80 -114 145 -115 145 -2 0 -51 -38 -110 -84 l-106 -83 110
-143 c61 -78 110 -145 110 -149 0 -4 -58 -54 -130 -111 -71 -57 -130 -105
-130 -107 0 -2 33 -47 72 -99 49 -63 78 -93 88 -90 8 2 43 16 76 30 97 41 181
59 237 52 59 -8 132 -43 166 -80 14 -14 28 -26 33 -26 18 0 167 126 163 138
-3 6 -23 37 -46 68 -36 47 -40 57 -28 68 8 7 129 103 270 214 141 111 277 224
302 251 153 171 130 389 -61 592 -79 84 -160 133 -237 143 -35 5 -45 1 -85
-32z"/>
<path d="M3271 2125 c-83 -24 -166 -72 -242 -143 -360 -333 -324 -805 83
-1095 319 -228 625 -190 889 109 28 33 64 78 80 101 43 62 106 199 124 268 16
62 20 153 7 171 -11 16 -172 147 -176 143 -2 -2 -11 -29 -21 -59 -56 -173
-208 -380 -326 -445 -67 -36 -141 -38 -216 -5 -29 12 -57 27 -62 34 -6 8 67
107 235 319 l244 309 -30 42 c-68 100 -182 189 -297 232 -86 33 -214 41 -292
19z m132 -360 c29 -15 67 -39 86 -54 l35 -29 -129 -163 c-70 -90 -132 -168
-137 -174 -13 -15 -96 74 -128 139 -37 72 -38 123 -6 191 56 120 154 151 279
90z"/>
</g>
</svg>
